<svg width="246" height="262" viewBox="0 0 246 262" xmlns="http://www.w3.org/2000/svg">
<path d="M189.661 236.048C188.562 236.846 187.458 237.645 186.364 238.447C179.034 243.812 171.039 247.9 162.717 251.345C151.802 255.863 140.497 258.71 129.023 260.577C121.685 261.769 114.315 262.058 106.932 261.991C101.016 261.938 95.1395 261.623 89.4405 260.625C81.6896 259.269 74.0274 257.517 66.7552 254.591C61.8583 252.622 57.0013 250.583 52.326 248.233C47.2917 245.705 42.6164 242.571 38.1227 239.258C34.2938 236.439 30.6023 233.375 27.2964 229.996C24.5355 227.176 22.0051 224.099 19.5544 220.96C11.972 211.258 6.98643 200.298 3.80899 188.366C1.57991 180.004 0.680292 171.393 0.192818 162.663C-0.170571 156.132 0.00669306 149.569 0.498599 143.043C1.09686 135.133 2.23578 127.2 4.08818 119.348C5.6481 112.733 7.60243 106.228 10.1329 99.8211C12.3708 94.1501 14.6088 88.5102 17.8349 83.2339C18.9872 81.3494 19.6253 79.2744 20.6933 77.3456C25.475 68.7217 31.3912 60.8515 37.8568 53.3227C42.315 48.1351 47.0391 43.1647 52.0379 38.4913C54.4664 36.2212 57.0146 33.9954 59.6115 31.8538C62.3856 29.5659 65.1642 27.2913 68.0226 25.101C75.4544 19.4167 83.5553 15.0316 92.1747 11.5509C99.0393 8.77976 105.917 6.07508 113.021 4.11086C123.639 1.18005 134.324 -0.234365 145.176 0.031669C158.648 0.364212 170.973 3.8803 182.486 9.78182C189.78 13.524 196.419 18.1708 202.384 23.691C205.889 26.9322 209.124 30.4083 212.417 33.8535C217.021 38.6731 220.695 44.1446 224.351 49.5983C226.913 53.4203 228.969 57.6502 231.069 61.8181C235.173 69.972 238.262 78.5029 240.593 87.3441C243.035 96.6154 244.413 106.135 245.14 115.819C245.773 124.261 245.831 132.721 245.047 141.207C244.302 149.268 242.702 157.267 240.513 165.217C237.721 175.357 233.498 184.934 228.176 194.161C223.212 202.772 217.256 210.695 210.276 217.931C207.037 221.288 203.651 224.494 200.261 227.704C196.955 230.861 193.095 233.153 189.661 236.048Z" fill="#258EBD"/>
<path d="M192.672 187.748C192.021 187.875 191.672 188.41 191.365 188.84C189.158 191.942 185.781 193.879 183.098 196.5C181.57 195.9 181.368 194.458 181.13 193.244C179.923 187.078 177.707 181.166 176.271 175.061C175.955 173.716 175.849 172.327 175.657 170.959C175.482 169.728 175.469 168.435 176.928 167.734C178.721 167.191 180.561 167.44 182.382 167.484C183.382 167.51 184.125 168.019 184.515 168.908C187.029 174.623 189.961 180.162 192.466 185.881C192.722 186.469 193.089 187.078 192.672 187.748Z" fill="#258EBD"/>
<path d="M69.0434 148.671C69.0522 152.124 69.1749 155.581 69.0215 159.025C68.9208 161.291 69.3413 163.483 69.5604 165.692C69.7707 167.817 70.4234 169.912 71.0148 171.984C71.304 172.999 71.5099 174.052 71.6326 175.053C72.132 179.106 73.0257 183.07 73.915 187.038C74.1034 187.889 74.6948 188.666 75.1767 189.428C76.2501 191.144 77.5381 192.722 78.2828 194.64C78.4537 195.081 78.8742 195.421 79.1459 195.765C79.1283 196.281 78.7341 196.418 78.48 196.713C77.4154 196.713 76.3289 196.713 75.1899 196.713C74.651 196.378 73.9282 196.285 73.3543 195.606C72.4386 196.872 70.7082 195.619 69.9196 197.088C71.0236 199.473 72.5701 201.66 73.1352 204.434C72.7059 204.818 72.2766 205.201 72.0531 205.4C69.5823 206.114 67.773 204.703 65.7796 204.143C64.4697 203.773 63.1335 203.402 61.9332 202.644C61.3155 202.251 60.7634 201.859 60.3735 201.391C60.0756 200.232 60.8686 198.931 59.6244 198.071C58.2225 198.516 56.8425 199.037 55.3442 198.953C54.8448 198.596 54.468 198.172 54.6257 197.498C54.8623 196.484 55.0419 195.447 55.3793 194.464C55.5808 193.873 55.6597 193.194 55.4625 192.766C54.6214 190.928 54.8886 188.965 55.1383 187.184C55.8437 182.236 55.3399 177.289 55.4581 172.35C55.4932 170.829 56.1197 169.427 55.9707 167.875C55.8217 166.349 55.813 164.779 55.9707 163.253C56.1503 161.56 55.6947 159.946 55.4056 158.359C55.2259 157.371 55.0989 156.401 55.0726 155.413C55.0288 153.813 55.0595 152.208 54.9456 150.576C54.1526 152.521 53.1012 154.302 52.2162 156.172C50.7574 159.245 49.5088 162.38 48.8999 165.771C48.5888 167.5 48.2515 169.215 48.0062 170.966C47.5199 174.427 47.13 177.92 46.0961 181.28C45.382 183.599 44.9614 186.002 44.1071 188.278C44.0589 188.405 44.1071 188.569 44.1071 188.714C44.1071 189.521 44.2955 190.394 44.0545 191.122C43.7917 191.907 44.1378 192.559 44.0984 193.269C44.0107 194.821 44.6942 196.118 45.3119 197.507C44.8694 198.049 44.4094 198.221 43.5464 197.793C41.8027 196.933 39.9627 196.246 37.9519 196.329C37.1239 196.281 36.4273 195.443 35.4767 195.95C35.3102 196.14 35.1218 196.36 34.8852 196.629C36.2083 198.481 34.2719 200.342 34.9466 202.119C33.4965 204.214 31.306 204.311 29.2338 204.672C28.1167 204.866 26.9163 204.311 25.8474 205.087C25.6196 205.254 25.326 204.959 25.0851 204.791C24.6864 204.518 24.4323 204.849 24.2264 205.029C23.3897 204.685 22.6624 204.236 22.198 203.482C22.198 203.098 22.198 202.728 22.198 202.357C24.2615 199.835 27.0215 197.952 28.7388 195.289C28.7388 194.411 28.7388 193.688 28.7388 192.969C24.7565 192.343 24.3754 192.771 21.1554 193.644C20.8093 193.318 20.4413 192.969 20.0689 192.612C19.7272 190.791 21.0546 189.702 21.9352 188.485C22.658 187.493 23.2363 186.478 23.578 185.31C25.1902 183.039 26.0226 180.389 26.9645 177.823C27.3018 176.905 27.7575 176.059 28.1211 175.168C29.1462 172.655 30.57 170.331 31.7178 167.883C32.7123 165.762 33.698 163.628 34.7056 161.512C36.4492 157.847 38.7755 154.518 41.0054 151.145C41.978 149.677 42.4774 148.063 42.8761 146.325C43.2747 144.588 43.1039 142.895 43.2572 141.184C43.45 141.016 43.6734 140.968 43.9187 141.038C44.8694 141.717 44.6942 142.714 44.5934 143.644C44.2254 147.053 43.2441 150.263 41.3033 153.112C35.6169 161.463 31.7266 170.745 27.6655 179.926C25.9481 183.806 24.187 187.647 22.0009 191.033C22.0798 191.479 22.1849 191.629 22.3382 191.602C26.3643 190.822 30.0969 191.607 33.7681 193.401C36.6508 194.808 39.9321 195.046 43.209 196.029C42.0919 191.986 42.6614 188.176 43.8224 184.441C45.4433 179.229 46.2582 173.863 47.0161 168.483C47.7082 163.567 49.2241 158.915 51.5065 154.509C52.8602 151.903 54.0037 149.205 55.0638 146.466C55.5764 145.144 56.0496 143.724 57.3945 142.78C58.4021 143.671 58.1261 144.592 57.7625 145.452C55.8349 150.029 55.7122 154.699 56.8995 159.475C58.1174 164.365 57.1229 169.272 56.8644 174.163C56.7549 176.235 56.9958 178.264 57.0134 180.314C57.0353 183.043 56.6848 185.724 56.4219 188.427C56.1503 191.245 57.3638 194.05 56.1328 197.344C60.448 196.14 64.3821 197.141 68.0928 195.783C70.6556 194.843 73.2447 194.111 75.9785 195.126C76.2501 195.227 76.5567 195.148 76.8108 194.905C76.9379 194.023 76.3771 193.371 75.904 192.762C73.0476 189.107 71.8998 184.82 71.2207 180.345C70.603 176.279 69.6699 172.275 68.8769 168.241C67.6897 162.178 67.5232 156.009 67.6459 149.835C67.659 149.249 67.7467 148.658 68.2417 148.235C68.6754 148.032 68.8594 148.354 69.0434 148.671Z" fill="#010607"/>
<path d="M192.574 187.442C190.851 183.473 188.953 179.578 187.118 175.657C186.019 173.308 184.8 170.978 184.064 168.464C183.992 168.215 183.675 168.037 183.461 167.81C181.451 167.81 179.446 167.81 177.446 167.81C177.134 168.05 176.812 168.045 176.486 167.836C176.508 166.477 177.585 166.516 178.522 166.39C179.67 166.237 180.884 166.599 182.21 165.95C181.13 162.752 179.777 159.71 178.612 156.608C178.286 155.741 177.647 154.927 178.178 153.929C178.357 153.759 178.567 153.707 178.808 153.768C180.219 155.075 180.683 156.878 181.304 158.56C185.229 169.213 190.288 179.386 195.093 189.664C196.012 191.634 196.687 193.703 197.669 195.834C201.308 195.398 204.822 195.603 208.202 196.866C208.363 197.071 208.368 197.28 208.216 197.49C207.497 197.49 206.782 197.49 206.01 197.49C206.032 198.287 206.372 198.884 206.805 199.254C208.104 200.365 208.354 201.751 208.238 203.302C208.216 203.585 208.234 203.872 208.234 204.256C206.916 205.441 205.416 206.003 203.639 205.267C201.835 204.517 199.794 204.169 198.464 202.435C198.156 200.461 198.812 198.701 200.169 197.124C199.334 196.862 198.718 197.11 198.017 197.389C197.093 197.76 196.383 197.381 196.195 196.444C195.579 193.35 194.057 190.632 192.623 187.869C192.57 187.747 192.592 187.586 192.574 187.442Z" fill="#020708"/>
<path d="M178.304 153.278H178.093L177.883 153.287C175.46 151.982 175.348 149.464 174.561 147.986C174.847 149.101 174.999 150.951 175.164 152.796C175.603 157.659 176.569 162.492 176.063 167.412C176.385 167.421 176.707 167.435 177.029 167.443C177.016 167.966 176.497 167.811 176.099 168.112C176.314 169.271 175.853 170.514 176.519 171.802C176.958 172.643 176.162 173.829 176.953 174.727C177.481 178.542 179.001 182.086 179.998 185.768C180.285 186.821 180.428 187.972 180.625 189.078C181.058 191.538 181.568 194.003 182.847 196.216C182.936 197.119 182.172 197.446 181.675 197.933C180.468 198.127 179.202 197.667 178.044 198.313C177.959 198.362 177.7 198.105 177.521 197.99C175.607 198.247 175.679 197.101 175.947 195.818C177.579 194.742 179.028 196.614 180.589 196.136C181.005 195.844 180.964 195.464 180.853 195.118C179.176 190.007 178.541 184.631 176.761 179.537C174.892 174.196 174.744 168.572 174.145 163.018C173.34 155.575 173.215 148.043 171.256 140.742C170.93 139.534 170.21 138.454 170.12 137.18C170.107 136.963 170.138 136.742 170.572 136.458C171.314 136.48 171.829 137.131 172.101 137.852C173.962 142.742 176.059 147.521 178.375 152.212C178.532 152.548 178.518 152.938 178.304 153.278Z" fill="#020D0F"/>
<path d="M176.135 196.3C175.977 197.058 176.477 197.623 176.687 198.327C176.908 198.349 177.154 198.374 177.396 198.395C177.267 198.779 177.513 199.247 177.19 199.584C176.803 199.989 176.791 200.634 176.969 200.937C177.96 202.632 176.642 203.732 175.998 204.892C175.687 205.453 174.708 205.824 173.886 205.44C173.189 205.115 172.496 204.82 171.73 204.736C170.461 204.736 169.195 204.736 167.873 204.736C167.418 204.243 166.955 203.741 166.479 203.227C166.479 202.678 166.479 202.126 166.479 201.54C167.809 200.01 169.461 198.732 170.432 196.7C169.731 196.7 169.074 196.713 168.418 196.692C168.212 196.683 168.071 196.527 168.091 196.278C169.369 195.465 170.678 195.347 172.032 196.063C171.504 197.864 170.235 199.166 169.211 200.634C168.788 201.241 168.103 201.654 167.942 202.438C168.353 203.391 169.159 203.273 169.86 203.298C171.065 203.345 172.254 203.416 173.455 203.593C175.385 203.88 176.352 202.514 175.578 200.587C175.091 199.369 174.66 198.104 173.914 197.008C173.668 196.645 173.463 196.283 173.979 195.962C174.756 195.684 175.502 195.608 176.135 196.3Z" fill="#010405"/>
<path d="M208.303 197.877C208.307 197.723 208.316 197.569 208.321 197.416C204.206 190.412 201.935 182.675 199.037 175.189C198.176 172.962 196.599 170.982 196.5 168.479C196.662 168.269 196.851 168.242 197.068 168.4C198.14 169.599 198.618 171.105 199.308 172.506C199.929 173.766 200.092 175.233 201.106 176.322C201.304 178.218 202.142 179.918 202.8 181.674C203.868 184.519 204.887 187.387 206.099 190.175C207.181 192.665 208.176 195.225 210.146 197.28C210.123 197.539 210.096 197.82 210.065 198.189C209.425 198.145 208.78 198.672 208.303 197.877Z" fill="#051012"/>
<path d="M197.437 168.13L197.223 168.135L197.01 168.13C196.815 167.952 196.695 167.73 196.65 167.468C196.619 167.064 196.735 166.704 196.979 166.384C197.925 165.505 198.094 164.381 198.117 163.15C198.179 159.814 198.068 156.492 197.637 153.187C196.833 147.03 197.805 140.948 198.308 134.845C198.605 131.233 198.667 127.613 198.974 124.002C199.041 123.206 199.081 122.367 198.303 121.345C193.687 120.817 188.836 120.048 183.904 120.537C183.255 122.456 184.317 123.544 185.272 124.659C187.623 127.395 188.56 130.58 188.214 134.134C188.054 135.773 187.649 137.355 186.188 138.403C185.961 138.519 185.721 138.545 185.477 138.483C184.855 137.79 185.286 137.11 185.512 136.435C186.734 132.802 186.401 129.381 184.091 126.245C183.864 126.058 183.646 125.716 183.366 125.774C179.013 126.645 174.601 125.201 170.247 126.107C167.87 126.605 165.426 126.534 162.934 126.574C163.103 126.938 163.218 127.12 163.303 127.324C164.351 131.744 164.369 136.271 164.756 140.749C165.6 150.53 166.235 160.325 167.27 170.089C167.528 172.523 167.439 174.958 167.404 177.396C167.395 178.063 167.306 178.734 166.746 179.213C166.484 179.235 166.297 179.071 166.315 178.853C166.559 175.495 165.546 172.195 165.88 168.836C165.951 168.095 165.884 167.397 165.404 166.789C164.422 165.651 164.862 164.248 164.693 162.964C163.338 152.649 163.174 142.232 162.077 131.895C161.85 129.772 161.552 127.746 160.388 125.796C159.38 124.108 159.144 122.029 159.762 120.013C159.873 119.777 160.06 119.635 160.317 119.582C161.899 120.857 161.073 122.944 162.112 124.735C168.394 125.312 174.756 122.722 181.332 124.295C181.216 118.911 181.878 113.905 183.189 108.476C181.483 110.187 180.017 110.808 178.124 109.76C177.138 109.214 176.351 110.155 175.547 110.653C173.69 111.808 172.157 113.571 169.776 113.745C168.803 112.723 169.883 112.359 170.438 112.003C172.246 110.848 173.997 109.627 175.72 108.352C176.369 107.872 177.093 107.463 177.4 106.659C176.889 103.723 175.249 102.697 172.65 103.683C172.171 103.865 171.709 104.163 171.215 103.732C171.362 100.52 174.259 96.8689 176.96 96.6113C177.093 97.6374 176.311 98.1793 175.818 98.859C175.303 99.5653 174.619 100.165 174.308 101.222C178.08 101.649 179.021 104.767 180.452 108.054C182.887 105.78 186.05 104.78 187.547 101.742C188.538 99.7341 188.298 98.748 186.348 97.7307C182.927 95.9405 179.617 94.0437 176.804 91.3251C175.445 90.0147 174.121 90.2412 172.846 91.8715C171.22 93.9504 169.243 95.3675 166.599 95.7273C164.884 95.9627 163.529 95.3408 162.672 93.826C161.912 92.4889 162.148 89.9924 163.072 88.9796C163.369 88.6554 163.725 88.3533 164.218 88.682C164.658 89.5127 164.143 90.259 164.014 91.0364C163.712 92.9021 164.765 94.0526 166.63 93.8882C169.776 93.6128 171.46 91.4051 170.856 88.2778C170.438 86.1011 170.078 83.9156 169.674 81.7389C169.527 80.9571 169.247 80.1086 170.18 79.5578C171.171 79.5889 171.291 80.4063 171.513 81.0904C171.789 81.9344 171.971 82.8139 172.073 83.6935C172.384 86.4387 173.006 88.8197 176.52 88.8508C177.311 88.8553 178.026 89.4594 178.604 90.0457C180.927 92.4045 183.766 93.9682 186.685 95.4474C190.728 97.4997 191.266 99.6142 188.849 103.47C188.493 104.034 188.102 104.572 187.645 105.06C185.015 107.868 183.34 113.798 184.077 118.009C189.369 118.298 194.687 119.084 199.858 118.436C200.653 117.694 200.756 116.947 200.751 116.21C200.742 113.767 201.08 111.341 201.182 108.907C201.822 93.6795 201.688 78.4384 201.671 63.2018C201.671 62.5443 201.711 61.8647 201.075 61.0073C190.808 60.5542 180.354 60.2433 169.976 62.1978C171.957 62.3444 173.85 61.7581 175.765 61.3894C177.035 61.1451 178.413 60.3277 179.439 61.7225C180.505 63.1751 180.181 64.9875 179.208 66.0892C177.462 68.0615 177.231 70.2515 176.769 72.6769C176.08 76.2795 173.317 78.5361 169.847 79.7799C169.105 80.3929 168.243 80.3974 167.359 80.2597C165.693 79.9221 164.071 79.7977 162.33 80.1309C159.78 80.6195 157.829 77.9764 158.74 75.5243C159.109 74.5337 159.78 73.743 160.464 72.9612C161.926 71.2909 162.739 69.3231 162.97 67.142C163.281 64.1924 161.57 62.6021 158.62 62.5177C152.267 62.3267 145.918 61.998 139.556 62.1401C138.61 62.1623 137.624 61.9669 136.699 62.5221C136.095 63.5438 136.206 64.601 136.659 65.7649C138.33 66.68 140.063 66.2136 141.769 65.8004C143.062 65.485 144.279 64.9031 145.598 64.6766C149.015 64.0902 152.667 66.1203 154.288 69.5096C155.67 72.3971 154.99 76.0041 152.622 78.0297C150.548 79.8066 148.215 80.1575 146.154 79.2913C151.121 83.4625 157.318 85.2349 164.4 84.4975C165.658 83.6091 165.182 81.4591 166.724 80.544C167.168 80.4996 167.55 80.7883 167.488 81.1303C166.981 83.8845 166.764 86.7719 164.334 88.7309C163.565 88.451 163.88 87.5226 163.156 86.9274C160.335 85.8524 157.025 87.2072 153.942 85.9501C151.796 87.798 150.748 90.3034 149.481 92.8754C152.6 96.0071 157.652 96.5446 160.006 100.862C158.14 101.564 157.456 99.8896 156.163 99.3254C157.154 103.208 157.643 107.068 158.687 110.631C160.051 111.448 160.864 110.737 161.677 110.093C164.107 108.165 166.551 106.255 169.025 104.385C169.656 103.905 170.314 103.012 171.304 103.865C171.278 104.971 170.456 105.544 169.718 106.135C167.932 107.561 166.08 108.916 164.374 110.426C162.254 112.297 159.984 113.127 157.114 112.803C152.862 112.328 148.615 111.857 144.514 110.586C143.528 110.28 142.248 110.098 142.315 108.561C143.146 108.059 143.883 108.561 144.634 108.805C148.175 109.942 151.858 110.338 155.519 110.826C155.812 110.866 156.11 110.831 156.585 110.409C155.737 106.544 155.128 102.47 154.04 98.4903C153.804 97.6374 152.982 97.3042 152.271 96.9044C151.245 96.3314 150.099 95.9183 149.459 94.8255C149.046 93.635 147.598 93.8705 146.878 92.8665C146.66 92.0714 146.669 91.1741 147.304 90.299C143.723 86.3632 139.401 83.2448 135.678 78.9581C135.678 81.0904 135.58 82.8583 135.7 84.6086C135.926 87.9135 134.736 91.143 135.322 94.2569C134.945 95.1765 134.336 95.5274 133.661 95.2564C131.888 94.5368 130.053 95.0076 128.263 94.8255C126.57 94.6523 125.006 95.4652 123.3 95.3142C121.612 95.1631 119.897 95.2831 118.169 95.2831C117.973 95.0965 117.76 94.8922 117.556 94.7011C117.591 94.2436 117.995 94.479 118.169 94.3236C118.706 92.2091 118.871 90.0635 118.813 87.8869C118.742 85.1727 117.538 82.8672 116.28 80.5973C115.627 79.4112 114.241 79.0603 113.13 78.4384C112.735 78.2163 112.091 78.3051 111.598 78.4206C109.35 78.9448 106.911 81.8322 106.817 84.1732C106.737 86.2433 106.6 88.3444 106.857 90.3834C107.093 92.2402 107.386 94.137 108.186 95.9449C107.955 96.1537 107.737 96.3536 107.404 96.6512C105.569 96.438 103.641 96.8467 101.673 96.2603C100.753 95.9849 99.6067 96.1271 98.4782 96.5135C97.2209 96.9489 95.7015 96.6113 94.2176 96.6113C93.4623 97.2865 92.5337 97.6818 91.5119 98.0594C89.9525 98.6325 88.5308 99.6319 87.1135 100.551C84.7944 102.053 82.5553 103.679 80.2272 105.162C78.9877 105.949 77.6326 106.548 76.171 107.312C76.6686 108.405 75.118 109.249 75.9755 110.515C76.5886 111.421 75.9533 112.59 76.402 113.691C76.833 114.735 77.2239 115.761 78.228 116.77C75.9622 117.361 74.0918 117.094 72.1947 116.241C72.1947 116.934 72.1947 117.574 72.1947 118.205C72.4701 118.338 72.7234 118.453 73.0788 118.622C72.1902 121.163 72.6478 123.797 72.6212 126.4C72.6123 127.369 72.017 128.146 72.1058 129.128C72.1814 129.963 72.3991 130.896 71.6838 131.629C72.0214 132.961 71.3905 134.201 71.1773 135.454C70.9551 136.764 71.0529 138.154 70.4664 139.403C70.4353 139.469 70.3509 139.523 70.3509 139.58C70.4842 142.481 69.3868 145.253 69.4446 148.145C69.1292 148.14 69.0181 147.954 69.0092 147.669C68.1162 146.63 68.4672 145.435 68.5916 144.276C69.3158 137.732 70.8352 131.3 71.3328 124.721C71.4128 123.695 71.6926 122.665 71.0751 121.709C70.2399 121.065 69.3602 121.394 68.5116 121.603C62.2562 123.135 56.4672 122.656 51.6779 117.765C51.5224 117.605 51.3003 117.543 50.7894 117.507C48.1992 119.337 46.4043 121.976 45.4625 125.165C44.2185 129.372 43.3388 133.641 44.1785 138.074C44.3429 138.936 44.414 139.856 43.7076 140.589L43.4899 140.593H43.2722C43.4499 139.269 42.628 138.097 42.7746 136.746C42.9123 135.502 42.7879 134.232 42.8057 132.975C42.8634 129.097 43.7742 125.445 45.4402 121.932C46.4665 119.768 48.1326 118.205 49.7364 116.539C50.2651 115.988 51.2025 115.628 50.7671 114.646C51.3269 114.202 51.8734 114.509 52.3488 114.344C52.5798 114.211 52.5576 113.985 52.5576 113.736C51.9578 113.194 51.1537 113.727 50.425 113.34C49.8919 111.044 51.709 109.618 52.4421 108.09C52.8197 105.456 53.264 103.084 52.9263 100.436C52.6464 99.7741 52.0822 98.9523 52.0156 98.0594C51.0515 97.6507 50.6916 98.3526 50.1807 98.7524C49.5232 98.0372 49.5232 97.171 49.4387 96.2692C49.2655 94.4302 49.6787 92.6489 49.9763 90.8898C50.1407 89.9258 50.3939 88.8064 51.1936 88.0157C51.9667 87.2516 52.6553 86.3854 54.0059 85.9767C54.8634 86.0123 56.0007 85.8035 57.1203 86.381C57.8134 86.7363 58.4487 86.0478 59.1062 85.879C59.3461 85.3548 59.2795 84.8573 59.1418 84.1777C58.7375 84.5064 58.3865 84.7907 58.04 85.075C56.0363 85.075 54.037 85.0839 52.0378 85.075C50.0874 85.0661 48.328 84.3198 46.4887 83.6402C46.2444 82.8583 46.3866 82.2364 46.9774 81.5124C48.0037 80.2597 48.9145 78.8826 49.7009 77.4611C50.4784 76.0618 51.1226 74.5737 51.6779 73.0723C52.2866 71.4242 53.1218 69.8961 53.9659 68.3725C54.3747 67.6351 54.779 66.8843 55.2677 66.1958C57.187 63.4772 59.7549 61.3672 62.0651 58.924C62.4694 58.924 62.9004 58.924 63.438 58.924C64.3887 59.4526 64.8241 60.5987 65.6194 61.416C66.3657 62.1845 66.9167 63.2284 68.0718 63.4328C68.285 64.2679 67.4453 64.41 67.201 65.0808C68.2184 66.7999 69.3691 68.5679 70.3376 70.4336C71.2795 72.246 72.8033 73.5875 74.0518 75.2889C72.7989 76.9547 70.9729 77.7232 69.2269 78.2651C67.8541 78.6916 66.268 79.5445 64.5753 78.3717C64.6197 80.5751 65.1218 82.5474 65.5438 84.4886C66.8989 85.0705 67.7341 83.9378 68.8315 83.6712C69.5379 82.6673 69.489 81.2636 70.4353 80.3085C70.9107 79.8288 71.546 79.6822 72.1769 79.2247C72.7545 79.6955 73.4165 80.1131 73.5942 81.0148C76.4953 79.3179 79.3876 77.6299 82.1732 76.0041C82.8218 73.5431 82.4975 71.02 82.8929 68.6168C83.3194 66.0448 82.9018 63.4905 83.2839 60.9851C83.817 57.4803 83.5415 53.971 83.737 50.4705C83.7948 49.4222 84.4879 48.2717 84.0658 47.3166C83.4216 45.8596 83.8925 44.4559 83.6171 42.8789C86.576 42.8789 89.4194 42.5502 92.1472 42.9722C94.9373 43.4031 97.6918 43.1143 100.446 43.3453C101.499 43.4341 102.348 42.7101 103.41 42.8567C104.356 42.9855 105.333 42.9189 106.293 42.8744C108.19 42.79 109.998 43.5185 111.922 43.3586C113.761 43.2032 115.663 43.0788 117.462 43.3897C121.932 44.1582 126.41 43.5408 130.875 43.7673C131.23 43.7851 131.657 43.8251 131.937 43.6607C133.416 42.8034 134.522 43.4963 135.638 44.407C135.638 49.7598 135.638 55.0771 135.638 60.381C136.175 60.8652 136.793 60.6342 137.353 60.6386C142.608 60.6609 147.864 60.6298 153.12 60.6653C154.257 60.6742 155.386 60.5054 156.554 61.0207C157.243 61.3272 158.345 61.3849 159.109 60.9007C159.678 60.5409 160.251 60.7986 160.939 60.5409C160.948 59.2571 161.144 57.9556 161.592 56.6674C162.143 55.0815 163.645 55.117 164.782 54.5174C165.262 55.1481 166.564 54.6017 166.773 55.7612C166.613 55.9211 166.417 56.0366 166.195 56.0499C162.583 56.2631 161.312 58.5686 163.187 61.8069C164.147 63.4683 165.302 64.992 165.133 67.0087C166.217 67.4485 166.968 66.8177 167.768 66.5423C168.745 66.2047 169.7 65.7871 170.731 65.6583C172.899 65.3918 174.077 66.6667 173.57 68.8922C173.157 70.709 172.677 72.4814 173.583 74.3294C174.579 73.6275 175.09 72.6014 175.014 71.4153C174.872 69.061 175.636 67.0887 177.129 65.3162C177.586 64.7699 178.031 64.1213 177.72 63.1485C176.054 63.0019 174.459 63.4772 172.873 63.9969C171.962 64.2945 171.078 64.7077 170.096 64.6677C168.67 64.6099 167.59 63.9925 167.595 62.4422C167.599 60.1678 167.328 57.9423 166.764 55.7478C168.141 55.7434 168.27 56.885 168.514 57.7957C168.785 58.8129 168.874 59.8746 169.603 60.6076C170.211 60.803 170.398 60.1411 170.887 60.1989C173.304 60.4832 175.685 60.0079 178.053 59.7236C184.81 58.9062 191.581 59.5325 198.343 59.3104C198.765 59.2971 199.169 59.2971 199.614 59.1505C201.857 58.4087 203.466 59.2349 203.568 61.5138C203.652 63.5127 204.15 65.605 203.23 67.5906C203.061 67.9549 203.195 68.4657 203.195 68.9055C203.195 75.3466 203.23 81.7833 203.159 88.2245C203.146 89.3439 203.652 90.299 203.683 91.4006C203.723 93.0176 202.99 94.5012 203.163 96.1404C203.328 97.6774 203.497 99.321 203.128 100.782C202.555 103.048 202.728 105.296 202.799 107.53C202.897 110.76 202.079 113.918 202.257 117.152C202.302 117.903 202.106 118.884 201.422 119.471C200.942 119.879 201.089 120.608 200.356 120.897C201.186 121.749 201.226 122.838 200.907 123.624C200.347 125.001 200.618 126.356 200.542 127.715C200.48 128.821 200.596 129.941 200.511 131.042C200.431 132.109 200.724 133.157 200.147 134.259C199.68 135.151 200.458 136.431 199.649 137.408C199.578 137.497 199.631 137.697 199.64 137.843C199.845 140.478 199.329 143.072 199.218 145.688C199.107 148.274 198.854 150.926 199.272 153.449C199.974 157.7 199.329 161.933 199.685 166.016C199.072 166.926 198.139 167.006 197.428 167.499C197.437 167.686 197.437 167.908 197.437 168.13Z" fill="#000303"/>
<path d="M166.042 179.288C166.047 176.729 165.993 174.165 166.083 171.61C166.123 170.443 165.466 169.443 165.556 168.245C165.637 167.144 166.011 165.919 165.155 164.884C165.083 164.796 165.137 164.598 165.155 164.452C165.502 161.99 164.831 159.576 164.606 157.158C164.385 154.784 164.556 152.383 164.16 150.07C163.876 148.414 164.079 146.758 163.75 145.168C163.354 143.234 163.66 141.256 163.255 139.402C162.908 137.812 162.881 136.265 162.944 134.715C162.985 133.733 162.463 132.949 162.422 132.019C162.382 131.112 162.71 130.196 162.089 129.275C161.778 128.817 162.021 128.006 162.017 127.35C164.682 126.438 167.47 126.949 170.198 126.711C174.804 126.31 179.451 127.117 184.062 126.451C185.588 128.187 186.336 130.196 186.313 132.486C186.304 133.578 186.313 134.667 186.313 135.732C185.903 136.79 185.066 137.631 184.935 138.781C184.372 138.922 184.71 139.129 184.881 139.344C187.461 142.556 189.163 146.141 190.307 150.092C191.73 155.017 193.418 159.884 195.58 164.562C196.075 165.633 196.273 166.787 196.66 167.884C196.656 168.025 196.674 168.161 196.705 168.298C198.529 172.187 200.154 176.156 201.622 180.182C202.685 183.103 203.657 186.054 204.932 188.899C205.643 190.481 206.197 192.124 206.976 193.688C207.606 194.961 208.52 196.013 209.236 197.322C208.948 197.352 208.66 197.379 208.376 197.41C206.629 197.357 204.95 196.956 203.248 196.617C202.023 196.37 200.749 196.392 199.515 196.648C199.258 196.701 199.047 196.96 198.718 196.938C198.272 196.908 197.826 196.93 197.673 196.93C196.237 196.564 196.858 195.52 196.548 194.833C195.746 193.058 195.107 191.216 194.215 189.472C192.126 185.376 190.442 181.103 188.335 177.006C186.43 173.311 184.926 169.412 183.341 165.567C182.153 162.682 181.131 159.735 180.009 156.819C179.609 155.775 178.794 154.907 178.614 153.766C177.587 151.775 176.457 149.824 175.565 147.775C174.575 145.489 173.413 143.265 172.787 140.829C172.431 139.441 171.729 138.173 170.734 137.001C170.653 137.252 170.531 137.424 170.576 137.512C170.995 138.323 171.535 139.085 171.851 139.926C172.107 140.604 171.954 141.446 172.341 142.076C172.85 142.895 172.567 143.899 173.134 144.67C173.21 144.776 173.264 144.943 173.246 145.066C172.949 146.89 173.958 148.612 173.688 150.414C173.521 151.537 174.278 152.449 174.205 153.572C174.138 154.607 173.764 155.766 174.606 156.722C174.642 156.761 174.615 156.867 174.606 156.938C174.287 159.052 175.165 161.087 175.043 163.179C174.908 165.43 175.399 167.641 175.633 169.835C175.88 172.17 175.989 174.588 176.822 176.887C177.6 179.037 178.051 181.301 178.713 183.49C179.239 185.235 179.654 186.997 180.072 188.767C180.626 191.12 180.703 193.635 182.135 195.749C182.243 195.908 182.238 196.154 182.252 196.361C182.27 196.639 182.256 196.921 182.256 197.26C180.347 197.674 178.848 196.683 177.254 196.176C176.952 196.079 176.691 196.079 176.403 196.075C175.511 196.071 174.615 196.066 173.724 196.062C173.111 196.577 172.494 196.577 171.882 196.062C171.193 195.903 170.554 195.78 169.797 195.996C169.063 196.207 168.221 196.049 167.425 196.057C166.902 196.057 166.384 196.057 165.871 196.057C165.623 195.617 165.389 195.198 165.151 194.78C165.551 193.529 166.074 192.309 166.056 190.957C166.038 189.648 166.2 188.318 166.002 187.036C165.867 186.146 166.754 185.464 166.312 184.644C165.831 183.746 166.128 182.812 166.065 181.9C166.006 181.037 166.047 180.16 166.042 179.288Z" fill="#15CDEB"/>
<path d="M159.358 120.029C159.187 122.091 159.912 124.059 159.916 126.063C160.211 126.48 160.637 126.148 161.051 126.444C161.622 128.529 162.18 130.775 162.018 133.083C161.921 134.442 162.541 135.634 162.523 136.961C162.506 138.176 162.141 139.467 162.928 140.606C162.994 140.704 162.941 140.897 162.928 141.045C162.651 144.443 163.473 147.783 163.451 151.185C163.438 153.355 163.666 155.569 163.895 157.735C164.049 159.178 163.939 160.702 164.321 162.043C164.853 163.89 164.559 165.687 164.66 167.507C164.181 167.83 163.693 168.005 163.073 167.991C160.958 167.938 158.839 167.969 156.72 167.969C156.373 167.969 155.969 167.857 155.881 168.39C155.239 169.197 154.289 169.103 153.445 169.166C148.491 169.529 143.528 169.803 138.569 170.112C136.89 170.215 136.591 169.018 136.375 167.646C135.619 162.818 136.059 157.963 135.936 153.122C135.905 151.934 136.015 150.719 135.166 149.683C134.476 149.154 133.641 149.343 132.854 149.329C130.511 149.284 128.163 149.432 125.825 149.258C123.455 149.078 121.939 147.343 121.903 144.967C121.868 142.565 123.306 140.754 125.666 140.534C128.146 140.301 130.621 140.35 133.087 140.946C135.457 141.516 136.389 140.754 136.349 138.252C136.296 134.679 135.716 131.124 135.931 127.534C135.975 126.789 135.918 126.041 135.971 125.292C136.177 122.342 136.67 121.858 139.497 121.208C140.661 120.939 141.813 120.917 142.978 120.899C147.431 120.827 151.893 121.092 156.342 120.648C151.353 121.105 146.359 120.827 141.365 120.881C140.464 120.89 139.65 121.231 138.776 121.325C137.189 121.491 136.138 120.926 136.151 119.182C136.169 116.205 135.61 113.233 136.01 110.252C138.068 109.773 140.05 110.346 141.87 111.108C147.409 113.435 152.676 116.416 158.369 118.402C159.094 118.658 159.78 119.021 159.358 120.029Z" fill="#63E8FD"/>
<path d="M136.404 109.897C136.285 109.964 136.059 110.026 136.059 110.097C136.019 111.65 135.682 113.291 136.072 114.732C136.453 116.137 136.302 117.475 136.422 118.84C136.453 119.201 136.426 119.567 136.426 119.946C136.652 120.178 136.856 120.387 136.967 120.503C139.003 120.931 140.788 120.035 142.692 120.093C147.111 120.227 151.539 120.137 155.967 120.133C156.756 120.133 157.588 120.343 158.137 119.598C158.518 119.919 158.85 120.071 158.943 120.606C155.635 120.405 152.421 121.333 149.122 121.065C147.877 120.963 146.615 121.043 145.362 121.047C142.679 121.065 139.982 120.86 137.228 121.699C136.825 122.729 136.44 123.866 136.431 125.093C136.413 127.769 136.192 130.467 136.497 133.108C136.758 135.378 136.772 137.631 136.86 139.928C136.081 140.905 135.155 141.698 133.796 141.542C133.256 141.48 132.711 141.221 132.198 141.056C130.98 140.664 129.775 140.69 128.553 140.677C127.375 140.668 126.193 140.673 125.006 140.673C123.213 141.542 123.213 141.542 122.239 143.184C122.239 143.96 122.239 144.772 122.239 145.61C122.691 146.881 123.563 147.769 124.869 148.273C128.447 148.273 132.06 148.273 135.784 148.273C136.147 149.847 136.497 151.435 136.418 153.117C136.338 154.821 136.4 156.533 136.404 158.242C136.404 160.026 136.378 161.81 136.413 163.59C136.444 165.253 137.184 166.85 136.816 168.442C137.192 169.004 137.64 169.486 138.14 169.196C139.389 168.478 140.708 168.763 141.979 168.799C145.491 168.897 148.945 168.152 152.465 168.237C153.541 168.264 154.723 167.903 155.874 167.854C158.801 167.854 161.733 167.854 164.66 167.854C164.071 168.353 163.584 168.844 162.826 168.781C158.731 168.447 154.67 169.187 150.587 169.325C148.068 169.41 145.491 169.379 143.002 169.758C141.111 170.048 139.256 170.017 137.321 170.133C136.603 170.463 135.762 170.713 135.284 171.48C134.319 171.31 133.353 171.725 132.485 171.025C132.215 170.806 131.56 170.851 131.197 171.02C129.731 171.721 128.195 171.382 126.689 171.435C125.144 171.489 123.581 171.556 122.044 171.413C120.631 171.279 119.365 171.939 117.983 171.895C116.584 171.85 115.176 171.805 113.781 171.908C111 172.104 108.304 171.252 105.518 171.413C102.724 171.569 99.8683 171.77 97.1184 171.373C91.7029 170.588 86.2874 171.368 80.7523 170.895C80.3493 170.641 80.1324 170.2 80.1457 169.513C80.1944 166.837 79.8622 164.12 80.2342 161.498C80.8807 156.93 80.1634 152.345 80.677 147.827C81.2704 142.591 80.8807 137.368 81.0268 132.14C81.0534 131.114 81.6556 130.24 81.5272 129.17C81.4165 128.26 81.5582 127.354 81.8593 126.409C82.2003 125.329 81.9257 124.054 81.939 122.867C81.9479 122.006 81.7088 121.088 82.5855 120.396C83.2763 119.669 84.277 119.705 85.2911 119.709C91.9243 119.723 98.5575 119.718 105.301 119.718C105.576 118.585 104.961 117.631 104.744 116.65C104.287 114.589 103.681 112.484 104.128 110.436C104.947 106.694 106.741 103.523 110.726 102.368C111.257 102.216 111.713 101.748 112.612 101.931C113.166 102.221 114.065 102.528 114.755 103.09C115.867 104 116.664 105.093 117.071 106.609C117.868 109.562 117.855 109.865 117.434 112.881C117.266 114.076 116.859 115.24 116.854 116.498C116.85 117.649 116.358 118.799 116.084 119.946C116.146 120.004 116.217 120.111 116.252 120.097C118.143 119.424 120.012 120.325 121.907 120.187C123.815 120.048 125.741 120.155 127.659 120.155C129.651 120.155 131.644 120.155 133.637 120.155C134.363 120.155 135.094 120.155 135.793 120.155C135.948 119.723 135.514 119.625 135.514 119.37C135.505 116.177 135.51 112.979 135.51 109.741C134.846 108.581 133.101 108.795 132.454 107.265C132.454 106.681 132.454 105.874 132.454 104.923C132.702 104.152 133.203 103.385 134.013 102.778C134.341 102.778 134.704 102.778 135.067 102.778C135.182 102.965 135.191 103.162 135.094 103.358C132.835 105.789 132.906 106.498 135.589 108.26C136.019 108.541 136.475 108.786 136.617 109.344C136.63 109.558 136.564 109.745 136.404 109.897Z" fill="#000303"/>
<path d="M135.549 103.218C135.574 103.083 135.583 102.947 135.57 102.812C135.8 102.298 136.167 101.842 136.009 101.193C135.877 100.647 136.376 100.457 136.64 100.092C137.549 100.092 138.47 100.002 139.37 100.119C140.24 100.227 140.905 99.5777 141.754 99.6183C142.483 99.6544 143.196 99.5326 143.955 99.289C145.648 98.7477 146.851 97.6154 147.823 96.2485C148.151 95.7839 148.731 95.3553 148.804 94.6651C149.674 94.3764 149.985 95.3238 150.574 95.6395C151.644 96.2079 152.843 96.5824 153.721 97.3853C154.651 102.194 155.564 106.917 156.472 111.613C155.918 111.956 155.346 111.979 154.988 111.726C154.527 111.401 154.097 111.361 153.606 111.374C152.779 111.392 151.994 111.329 151.188 110.964C150.527 110.661 149.636 111.248 149 110.513C146.484 110.652 144.292 109.407 141.98 108.668C141.306 108.113 141.579 107.093 141.063 106.538C139.306 105.171 136.201 106.493 135.549 103.218Z" fill="#258EBD"/>
<path d="M43.4998 140.92C43.7799 138.864 42.9667 136.907 42.9803 134.851C42.9984 132.302 43.5088 129.841 44.0283 127.399C44.5523 124.929 45.5326 122.567 47.082 120.467C48.1933 118.958 49.7201 117.873 50.8811 116.444C52.2859 117.61 53.3565 119.025 54.9105 119.968C56.74 121.081 58.5876 121.917 60.8011 121.815C61.5871 121.779 62.4002 121.588 63.1817 122.148C63.525 122.398 64.2749 122.389 64.704 122.197C66.2264 121.512 67.9474 121.69 69.4788 120.996C70.0932 120.72 70.9424 120.952 71.7239 120.952C72.0989 121.245 72.4919 121.574 72.397 122.188C72.2208 123.323 72.7584 124.52 71.995 125.628C71.7826 125.935 71.8911 126.5 71.9543 126.931C72.1666 128.404 71.5432 129.783 71.5071 131.22C71.471 132.666 70.956 133.997 70.694 135.381C70.4546 136.635 70.4771 137.939 70.1564 139.207C69.6821 141.076 69.8266 143.033 69.2801 144.92C69 145.881 69.2259 146.98 69.2213 148.016C68.86 148.083 68.7786 148.315 68.7832 148.648C68.7922 151.389 68.5031 154.17 68.8735 156.862C69.1942 159.206 69.0045 161.533 69.2755 163.843C69.5601 166.29 70.0073 168.746 70.8069 171.086C71.1321 172.047 70.7075 173.15 71.4981 173.969C71.5116 176.06 72.1034 178.08 72.4693 180.105C73.0294 183.192 73.3818 186.391 75.0577 189.212C75.532 190.009 76.0018 190.787 76.5574 191.53C77.5784 192.896 78.3734 194.4 79.1459 196.024C77.8539 196.153 76.5349 196.309 75.3287 195.641C73.7974 194.792 72.4105 195.668 71.0057 195.957C69.4156 196.282 67.9023 196.936 66.3257 197.346C65.6978 197.51 64.9931 197.452 64.3291 197.426C61.6051 197.332 58.9083 197.47 56.2883 198.311C56.1708 198.347 56.0127 198.262 55.6875 198.195C55.9133 197.061 56.0353 195.877 56.4102 194.778C56.5909 194.258 56.7536 193.604 56.5503 193.323C56.1076 192.705 56.2431 192.073 56.1257 191.441C55.7326 189.319 56.0398 187.29 56.5322 185.208C56.8484 183.873 56.6497 182.4 56.5774 180.999C56.4961 179.486 56.9704 177.916 56.1573 176.465C56.094 176.354 56.1121 176.158 56.1618 176.029C56.8665 174.111 56.2205 172.056 56.6677 170.183C57.2279 167.838 56.8078 165.515 57.0653 163.206C57.2324 161.716 56.8304 160.27 56.4464 158.957C55.7146 156.457 55.5655 153.956 55.7552 151.447C55.8411 150.326 56.2476 149.209 56.1166 148.194C56.7807 146.304 58.0003 144.733 57.9552 142.655C57.0517 143.069 57.1963 143.847 56.88 144.373C55.7552 146.259 55.168 148.35 54.3052 150.339C53.4379 152.346 52.2046 154.197 51.3057 156.194C49.7969 159.536 48.4462 162.922 47.9584 166.61C47.7054 168.51 47.2943 170.396 47.0323 172.314C46.7748 174.214 46.6935 176.198 46.1153 177.996C45.5371 179.798 45.5055 181.769 44.4484 183.419C44.1457 186.249 42.7996 188.879 42.9984 191.828C43.1836 194.578 43.0977 194.858 44.3535 197.581C41.2547 196.126 38.079 195.708 34.9982 195.09C34.9124 194.805 34.8491 194.6 34.7859 194.396C34.5194 194.525 34.2799 194.645 33.9592 194.805C29.6858 192.207 25.155 191.041 20.1814 193.056C19.9375 192.233 19.9104 191.65 20.4389 190.947C23.5197 186.841 25.539 182.2 27.2465 177.408C27.6214 176.358 28.299 175.411 28.7237 174.374C29.8756 171.558 31.5289 168.986 32.7396 166.183C33.765 163.811 34.8943 161.422 36.2721 159.193C37.6544 156.959 39.0412 154.722 40.5229 152.55C42.1536 150.161 43.2287 147.634 43.5585 144.724C43.6805 143.674 43.9018 142.615 43.938 141.538C43.9515 141.214 43.8792 140.964 43.4998 140.92Z" fill="#15CDEB"/>
<path d="M28.3831 195.391C28.3831 194.998 28.3831 194.327 28.3831 193.767C28.6365 193.393 28.8418 193.091 28.9948 192.861C30.6595 193.483 31.9092 194.584 33.5127 194.886C33.9016 197.163 33.4341 199.399 33.0889 201.794C32.3199 202.853 31.1139 203.092 29.7201 203.39C27.4961 203.863 25.2982 203.606 23.1048 203.778C22.563 203.516 22.2309 203.038 21.8333 202.574C23.3801 201.235 24.5598 199.53 26.2988 198.394C27.1771 197.821 27.9505 196.969 28.3831 195.391Z" fill="#015E85"/>
<path d="M72.0841 204.602C70.7966 204.905 69.7274 204.341 68.6538 203.919C67.3799 203.417 66.1652 202.868 64.7548 202.697C63.2171 202.512 61.9614 201.46 60.9514 200.12C60.9514 199.381 60.9514 198.604 60.9514 197.594C63.6675 197.386 66.5337 197.997 68.954 196.5C69.6228 196.817 69.8457 197.187 70.0732 197.737C70.7875 199.442 71.6109 201.105 72.5254 202.702C72.994 203.526 72.7893 204 72.0841 204.602Z" fill="#015E86"/>
<path d="M176.599 168.299C175.922 168.037 176.244 167.391 176.273 166.962C176.45 164.062 175.568 161.235 175.846 158.335C175.298 157.007 175.676 155.539 175.39 154.22C175.088 152.829 175.229 151.434 174.996 150.092C174.798 148.949 174.5 147.865 174.782 146.465C175.87 148.945 176.869 151.217 177.852 153.493C177.944 153.705 178.009 153.882 178.242 153.882C178.311 154.306 178.218 154.731 178.415 155.169C180.151 159.012 181.062 163.231 182.854 167.255C180.941 167.594 179.173 167.323 177.348 167.449C177.042 167.594 176.752 167.865 176.599 168.299Z" fill="#64E9FE"/>
<path d="M198.901 203.238C199.016 202.736 198.365 202.53 198.319 202.132C198.876 200.464 199.698 198.97 200.53 197.41C201.819 197.41 203.137 197.41 204.566 197.41C205.759 198.112 205.764 199.705 206.957 200.609C208.121 201.49 207.714 203.111 208.321 204.071C208.381 204.779 207.92 204.933 207.674 205.21C206.922 205.57 206.1 205.196 205.278 205.51C204.676 205.739 203.799 205.467 203.092 205.271C202.425 205.083 201.819 204.699 201.192 204.39C200.5 204.048 199.808 203.692 198.901 203.238Z" fill="#015E85"/>
<path d="M172.338 196.5C172.961 196.5 173.588 196.5 174.211 196.5C174.27 196.616 174.307 196.818 174.389 196.836C174.673 196.9 174.975 196.904 175.433 196.943C175.479 198.195 176.033 199.353 176.783 200.428C177.731 201.779 177.571 202.997 176.362 204.124C176.202 204.274 176.074 204.455 175.872 204.688C174.856 204.546 173.904 204.64 172.856 204.296C171.775 203.939 170.457 204.176 169.249 204.236C167.953 204.3 167.001 203.904 166.479 202.67C168.219 200.996 170.21 199.413 171.107 197.046C171.391 196.616 172.247 197.326 172.338 196.5Z" fill="#015E85"/>
<path d="M91.699 93.3927C90.7689 93.8811 90.1045 94.7533 89.0016 95.0237C88.4834 95.1502 87.8988 95.3028 87.5267 95.1022C86.2777 94.4349 84.8382 94.8492 83.5847 94.3041C83.2879 94.1733 82.8849 94.2867 82.3445 94.2867C82.597 92.9566 81.875 91.9012 81.875 90.654C81.875 89.5507 82.4774 88.6305 82.4198 87.5184C82.3666 86.4849 82.0256 85.3597 82.7963 84.3742C82.938 84.191 82.845 83.8029 82.8096 83.5194C82.4995 81.0685 83.0089 78.6482 83.3322 76.2627C83.8194 72.6519 83.9302 69.0322 84.2491 65.4257C84.5015 62.5518 84.2269 59.6561 84.6743 56.8433C85.0641 54.3968 84.9356 51.9808 85.0198 49.5474C85.0596 48.4179 85.1659 47.284 84.63 46.1807C84.444 45.7926 84.4794 45.1951 84.7983 44.5846C85.7949 44.6718 86.8269 44.3796 87.912 44.8724C88.5277 45.1471 89.3515 44.9901 90.0824 44.9989C92.0002 45.0163 93.9889 44.7067 95.8094 45.1253C97.364 45.4829 98.9453 45.6617 100.327 45.339C102.529 44.8244 104.725 44.8462 106.838 45.0861C109.314 45.3695 111.821 45.0948 114.226 45.5135C117.375 46.0586 120.498 45.7359 123.629 45.858C125.397 45.9278 127.173 45.9059 128.94 45.8623C130.592 45.8187 132.293 46.2243 133.631 45.3477C134.22 45.5832 134.184 45.8711 134.202 46.1632C134.384 49.6782 134.773 53.1757 134.663 56.7081C134.552 60.2623 134.636 63.8252 134.636 67.4972C136.527 68.147 138.427 68.5787 140.403 67.6891C142.334 67.9464 143.955 66.8212 145.758 66.4723C147.007 66.2281 147.955 66.891 149.075 66.939C149.824 66.9739 150.488 67.6454 150.927 68.2996C151.582 69.2852 152.145 70.3362 152.659 71.2127C153.168 72.8786 152.415 74.2785 152.282 75.77C151.994 76.0665 151.675 76.3718 151.387 76.7032C149.904 78.3909 148.065 78.5217 146.081 77.8283C143.968 77.087 141.687 76.9823 139.623 76.0054C138.963 75.6914 137.989 75.8179 137.227 76.0098C136.802 76.1188 136.213 76.2366 135.916 76.9125C135.624 77.5841 135.035 78.1729 134.809 78.6308C133.936 83.925 134.286 89.0404 134.18 94.0599C133.75 94.4001 133.347 94.3216 133.019 94.2649C129.892 93.698 128.191 93.6849 124.892 94.2605C124.75 94.2867 124.599 94.2692 124.449 94.2692C122.757 94.2692 121.065 94.2692 119.289 94.2692C119.081 93.5671 119.324 92.9827 119.484 92.285C120.086 89.6204 120.064 86.9123 118.992 84.3175C118.274 82.5862 117.734 80.7502 116.246 79.4332C115.232 78.5392 114.226 77.6408 112.725 77.6539C112.552 77.6539 112.375 77.4184 112.118 77.2309C110.979 77.9853 109.651 78.4171 108.455 79.2064C106.661 80.3839 105.974 81.9887 105.877 83.925C105.784 85.7348 105.948 87.562 105.828 89.3719C105.74 90.7586 106.063 92.08 106.528 93.288C106.807 94.0163 106.24 94.9234 107.467 95.5208C103.051 95.5208 99.0161 95.5208 94.9235 95.5208C94.8482 95.1022 95.2336 94.8318 95.4506 94.7969C95.9422 94.7141 96.2789 94.448 96.4782 94.0861C96.6421 93.7895 96.6421 93.4058 96.8591 93.288C96.5668 92.0102 97.0717 90.9811 97.4349 89.9039C97.807 88.7962 98.0417 87.6449 98.365 86.4107C98.086 85.9092 97.6829 85.4339 97.1116 85.1243C95.2646 85.8438 94.2237 87.6972 92.297 88.2772C91.9471 89.0666 91.9249 89.869 92.1021 90.7499C92.2881 91.657 91.4422 92.4769 91.668 93.4363L91.699 93.3927Z" fill="#C1E9EF"/>
<path d="M169.642 79.8883C170.231 79.4436 170.78 78.9242 171.422 78.572C172.157 78.1714 172.617 77.5947 172.927 76.8243C173.215 76.8111 173.502 76.7979 173.817 76.7803C174.419 76.569 173.631 75.574 174.56 75.4596C175.344 75.3627 175.362 74.5219 175.694 74.0113C175.986 73.5622 175.866 72.9415 176.243 72.4396C176.415 72.2107 176.459 71.5724 176.145 71.2026C175.587 70.5555 175.937 69.8159 175.831 69.0763C176.583 68.6801 176.57 67.628 177.283 67.2802C177.951 66.9544 178.412 66.4878 178.77 66.1444C178.571 65.1231 179.222 64.5068 179.235 63.732C179.271 63.1509 178.761 62.6578 178.863 62.0063C178.46 61.795 178.089 61.6013 177.624 61.3592C177.239 61.2623 176.907 61.6981 176.592 61.8786C175.632 62.4201 174.689 62.9264 173.573 62.6887C172.714 62.5038 171.984 62.9836 171.333 63.2301C170.536 63.5339 169.806 63.5339 169.111 63.5823C168.053 63.1201 168.341 62.2969 168.318 61.4824C168.642 61.4428 168.85 61.3768 169.049 61.3944C172.112 61.6629 175.118 60.668 178.182 60.9498C179.997 60.2058 181.922 60.7341 183.764 60.4611C184.893 60.2938 186.017 59.9108 187.155 60.0869C192.016 60.8353 196.912 60.3423 201.958 60.5624C201.958 61.2403 201.958 61.8786 201.958 62.5214C201.958 73.7383 201.958 84.9552 201.958 96.1722C201.268 100.649 201.803 105.179 201.423 109.652C201.219 112.029 201.117 114.393 201.095 116.77C201.086 117.594 200.466 118.175 200.559 119.059C197.155 119.059 193.813 119.372 190.559 118.963C187.934 118.632 185.335 118.804 182.71 118.58C182.648 118.5 182.476 118.368 182.498 118.28C182.746 117.171 183.14 116.066 182.909 114.921C182.684 113.799 183.37 112.87 183.436 111.783C183.525 110.361 184.233 108.992 184.477 107.565C184.667 106.451 185.287 105.641 186.123 105.166C188.084 104.057 188.461 101.935 189.523 100.271C189.961 99.5839 189.417 98.7123 188.996 98.0916C188.434 97.2639 187.633 96.6124 186.686 96.1986C184.499 95.2433 182.405 94.156 180.453 92.7428C179.62 92.1397 178.863 91.4838 178.195 90.7574C177.084 89.5556 175.76 89.0802 174.18 89.1242C173.812 89.133 173.44 89.1242 172.9 89.1242C172.657 88.8292 172.329 88.433 172.015 88.0544C171.479 85.3426 170.939 82.6132 170.399 79.875C170.071 79.875 169.85 79.875 169.629 79.875L169.642 79.8883Z" fill="#258EBD"/>
<path d="M170.79 103.826C170.332 103.781 170.006 103.97 169.632 104.272C167.137 106.302 164.584 108.26 162.088 110.285C161.52 110.746 161.093 111.386 160.644 111.896C159.782 111.896 159.064 111.896 158.228 111.896C157.885 111.702 157.537 111.4 157.546 110.773C157.572 108.955 156.995 107.209 156.573 105.49C156.247 104.164 156.348 102.766 155.803 101.493C155.358 100.451 155.459 99.2424 154.685 98.065C156.802 98.444 157.427 100.605 159.183 101.02C159.35 100.731 159.438 100.42 158.937 100.226C157.691 99.7431 157.154 98.3718 155.93 97.7673C155.204 97.4109 154.504 96.8967 153.751 96.5133C151.872 95.5614 150.081 94.4517 148.285 93.0894C149.746 90.2023 151.375 87.3063 153.483 84.6042C153.782 84.8884 154.231 85.3124 154.68 85.7364C157.818 85.98 161.023 85.3079 164.166 86.4582C164.1 87.1529 163.501 87.7529 163.703 88.5107L163.739 88.4746C162.775 88.7994 162.594 89.7152 162.423 90.5271C162.273 91.2444 162.361 92.0248 162.396 92.7736C162.462 94.145 163.699 94.5059 164.456 95.2276C168.602 95.5299 171.063 92.9947 173.035 89.855C174.051 89.855 174.919 89.855 175.764 89.855C177.106 90.9016 178.154 92.2233 179.492 93.2698C181.415 94.7765 183.515 95.9133 185.636 97.0095C186.847 97.6365 187.811 98.3267 188.313 99.6574C188.154 100.203 188.018 100.83 187.798 101.426C187.062 103.429 185.614 104.805 183.893 105.901C182.432 106.825 181.059 107.854 179.879 109.135C178.792 108.95 179.03 107.849 178.845 107.245C178.193 105.129 177.19 103.352 175.213 101.985C174.461 101.985 173.528 101.985 172.493 101.985C173.567 99.9371 174.945 98.3132 176.499 96.8245C175.993 96.4321 175.72 96.6892 175.469 96.9689C174.342 98.2184 173.052 99.2966 172.141 100.772C171.534 101.755 171.433 102.937 170.75 103.857L170.79 103.826Z" fill="#15CDEB"/>
<path d="M185.066 138.529C187.117 136.147 187.276 133.442 186.654 130.549C186.164 128.271 185.13 126.344 183.329 124.788C181.918 123.569 181.845 121.982 182.004 120.182C184.495 120.182 186.94 119.911 189.286 120.269C191.15 120.553 192.992 120.426 194.825 120.654C196.2 120.824 197.552 121.174 199.185 121.021C199.185 122.231 199.244 123.376 199.167 124.508C199.094 125.636 199.535 126.812 198.777 127.891C198.6 128.145 198.736 128.599 198.732 128.962C198.722 130.78 199.067 132.69 198.609 134.399C198.142 136.143 198.75 137.979 197.838 139.613C197.806 139.67 197.829 139.757 197.833 139.827C198.046 142.856 197.584 145.859 197.348 148.866C197.248 150.111 197.72 151.243 197.824 152.445C197.928 153.643 197.507 154.884 198.232 156.033C198.4 156.3 198.269 156.746 198.273 157.113C198.273 160.019 198.273 162.93 198.273 165.845C197.711 166.199 196.971 166.033 196.468 166.479C194.784 164.29 194.081 161.667 193.083 159.189C191.754 155.885 190.574 152.511 189.594 149.093C188.723 146.051 187.448 143.263 185.525 140.701C185.125 140.164 183.887 139.495 185.066 138.529Z" fill="#64E9FE"/>
<path d="M165.974 80.7216C165.422 82.2599 164.87 83.7938 164.309 85.3583C162.609 85.903 161.096 84.8266 159.461 85.0314C157.826 85.2362 156.144 85.075 154.5 85.075C153.457 84.2296 152.652 82.8002 150.9 83.6369C148.44 81.9287 145.883 80.1551 142.974 78.1374C144.661 78.1723 145.714 78.9174 146.957 79.0264C148.57 79.1746 150.387 78.9436 151.509 78.011C153.148 76.6514 154.022 74.9955 153.805 72.8209C153.748 72.2457 153.796 71.6618 153.796 71.3567C153.231 69.3216 151.931 68.1145 150.657 66.8813C150.139 66.3801 149.522 65.9792 148.853 65.9269C147.622 65.8354 146.479 65.0466 145.153 65.6088C144.027 66.0882 142.814 66.3583 141.657 66.7767C139.862 67.426 138.014 67.1297 136.166 67.2255C135.94 66.9989 135.736 66.7985 135.549 66.6111C135.549 65.1077 135.549 63.6652 135.549 62.2054C136.04 61.7696 136.644 61.9962 137.188 61.9918C141.822 61.97 146.453 61.9613 151.087 61.9875C152.926 62.0006 154.718 62.6106 156.587 62.432C157.844 62.3143 159.144 62.5801 160.326 61.8611C161.539 62.7806 161.787 64.332 162.874 65.1861C163.13 67.7572 162.578 70.0799 161.248 72.2413C161.074 72.5246 160.987 72.8819 160.713 73.1172C159.57 74.0977 158.704 75.2787 158.161 76.7952C158.383 77.9849 158.996 79.0482 160.117 79.8108C161.417 80.0636 162.539 79.4709 163.765 79.0308C164.587 79.2922 165.504 79.5842 166.417 79.8762C166.617 80.3424 166.296 80.5342 165.974 80.7216Z" fill="#258EBD"/>
<path d="M169.041 113.574C170.174 113.543 171.01 112.822 171.881 112.265C173.49 111.23 175.028 110.08 176.575 108.957C176.833 108.771 177.082 108.687 177.628 108.749C178.006 109.085 178.544 109.563 179.082 110.045C179.451 110.045 179.82 110.045 180.322 110.045C181.233 109.174 182.224 108.223 183.136 107.347C183.985 107.599 183.776 108.196 183.629 108.475C182.993 109.669 182.94 111.027 182.429 112.265C182.047 113.198 182.567 114.419 181.913 115.401C182.216 117.661 181.313 119.837 181.438 122.101C181.491 123.048 182.313 123.826 181.776 124.967C181.171 125.051 180.464 124.994 179.66 124.887C177.962 124.666 176.259 123.459 174.486 124.64C174.437 124.675 174.339 124.649 174.268 124.64C172.139 124.299 170.108 125.157 167.983 125.122C165.596 125.082 163.24 125.891 160.653 125.361C160.818 123.556 160.147 121.703 160.111 119.775C160.56 118.32 161.538 119.841 162.334 119.293C162.582 116.396 165.676 115.985 167.321 114.158C167.805 113.716 168.356 113.455 169.041 113.574Z" fill="#15CDEB"/>
<path d="M75.491 100.994C75.0909 101.706 74.0651 101.172 73.6465 101.889C72.3907 101.218 71.1856 100.616 70.0356 99.937C69.6814 99.7291 69.3732 99.6484 68.9914 99.6824L69.0282 99.7163C68.9914 99.1392 68.4624 98.7998 68.0576 98.6428C66.1579 97.9002 64.6997 96.5211 62.8 95.7616C61.4108 95.2057 60.2011 94.2595 58.8717 93.466C58.8717 92.7913 58.8717 92.0954 58.8717 91.4207C58.4301 91.0813 58.0115 91.1322 57.5745 91.3613C57.8505 91.6711 58.1265 91.9808 58.5313 92.4306C56.88 93.1095 55.0998 93.1859 53.5681 94.0728C52.0685 94.9426 51.2221 96.4235 49.4696 97.2595C49.0602 96.1265 49.0234 94.9639 49.3178 93.9921C50.3159 90.6994 50.1779 89.2269 52.7815 87.3726C54.3684 87.3726 55.9784 87.3726 57.7171 87.3726C59.4467 88.9426 60.914 91.0091 63.9776 91.4419C64.1294 91.4122 64.4835 90.8776 65.0079 91.2383C66.2039 89.6852 66.4063 88.0176 66.2407 86.3203C67.1561 85.3443 68.7384 85.6244 69.5204 84.5848C70.1966 83.6852 70.0632 82.4801 70.882 81.6357C71.3328 81.4193 71.779 81.2029 72.2757 80.9653C72.4505 81.0798 72.6621 81.169 72.8001 81.3175C73.3843 81.9455 73.5637 82.7475 73.8167 83.5112C74.5527 85.7178 75.606 87.7588 77.3264 89.3797C77.1838 89.9313 76.8572 90.1859 76.4202 90.3472C75.6106 90.5805 74.9897 89.3967 74.1111 90.0883C74.7137 90.8606 75.79 91.3231 75.8452 92.4518C76.0246 93.5848 76.0108 94.7856 75.4496 95.8507C74.7413 97.1958 75.0679 98.5622 75.0955 99.9327C75.0955 99.9879 75.3347 100.039 75.4634 100.09C75.7164 100.391 75.7394 100.688 75.491 100.994Z" fill="#15CDEB"/>
<path d="M168.511 113.802C168.463 114.295 168.114 114.291 167.749 114.251C167.431 114.216 167.211 114.317 167.171 114.666C166.312 115.225 165.448 115.768 164.58 116.31C163.222 117.161 161.79 117.959 162.125 120.083C156.828 118.082 151.707 116.266 146.806 113.885C144.082 112.563 141.509 110.817 138.296 110.751C137.582 110.738 136.903 110.319 136.335 109.821C135.898 109.107 135.07 108.988 134.413 108.697C133.263 108.181 132.703 107.321 132.84 106.206C132.99 104.998 133.479 103.843 134.973 103.649C135.837 104.774 136.784 105.735 138.393 105.439C139.331 106.074 140.429 105.823 141.614 105.915C141.614 106.978 141.614 107.974 141.614 108.97C142.319 110.359 143.787 110.39 144.995 110.689C147.582 111.337 150.226 111.752 152.87 112.153C154.598 112.417 156.29 112.369 157.996 112.488C158.489 112.523 159.031 112.347 159.397 112.858C161.107 112.148 162.376 110.791 163.853 109.746C166.012 108.212 167.938 106.356 169.957 104.628C170.106 104.5 170.181 104.284 170.292 104.112L170.252 104.148C171.371 104.086 171.966 102.935 173.05 102.799C175.439 103.306 176.77 104.848 177.396 107.299C174.844 109.362 172.257 111.381 169.335 112.933C168.969 113.136 168.595 113.317 168.511 113.802Z" fill="#B4F4FE"/>
<path d="M91.5196 93.7356C92.3041 93.3101 92.4275 92.5965 92.4231 91.8141C92.4143 90.9544 92.4231 90.099 92.4231 89.0974C94.402 88.9856 95.0454 86.6729 97.0551 86.4236C97.7338 87.6315 97.0419 88.7363 96.6232 89.768C96.1384 90.963 95.8431 92.1322 95.9709 93.4304C95.1159 94.4793 93.7453 95.0811 93.2164 96.461C93.0886 96.7963 92.4275 97.0112 91.9691 97.1445C89.2278 97.9483 86.9404 99.5603 84.6487 101.121C81.7046 103.124 78.8223 105.17 75.3758 106.344C73.9963 106.816 72.5992 107.483 72.0395 109.03C72.013 109.108 71.7971 109.133 71.6649 109.164C71.6032 109.176 71.5282 109.146 71.4313 109.133C70.8275 108.471 72.1452 108.076 71.9601 107.19C71.6472 107.006 71.3431 106.804 71.017 106.645C68.3991 105.364 65.7547 104.126 63.1588 102.806C59.6418 101.018 56.1733 99.1348 52.5505 97.5529C52.2993 97.4411 52.1142 97.1789 51.8542 96.9424C53.5995 95.2531 55.5431 93.9377 57.9494 93.2069C61.0654 95.3046 64.2695 97.2476 67.6014 98.9929C68.0906 99.2508 68.3462 99.9171 69.0646 99.7709L69.0293 99.7366C69.9769 101.009 71.493 101.478 72.7931 102.238C73.0664 102.397 73.5644 102.428 73.8465 102.294C75.0452 101.723 76.3983 101.71 77.6147 101.138C79.4789 100.261 81.4754 99.6635 83.3618 98.8338C85.2525 98.0042 87.0022 96.908 88.9942 96.2246C89.8316 95.9365 90.6822 95.2789 91.5549 94.7587C91.5549 94.4105 91.5549 94.0537 91.5549 93.7012L91.5196 93.7356Z" fill="#B4F4FE"/>
<path d="M70.4611 107.99C70.2292 108.84 69.6155 109.263 69.9792 109.941C70.3338 110.278 70.9612 110.148 71.1794 110.804C71.5704 110.463 71.8841 110.319 71.9886 110.081C72.5433 108.822 73.498 108.031 74.9255 107.514C74.83 110.535 74.83 113.501 76.4167 116.324C74.1117 116.666 72.2023 116.297 70.4702 115.003C69.5473 114.31 68.5153 113.78 67.5878 113.074C66.3922 112.166 64.8283 112.148 63.4371 112.022C62.0096 111.897 60.4411 111.492 59.0591 112.404C57.3315 112.157 55.7267 113.083 53.9809 112.876C52.717 112.724 51.4213 112.845 50.0347 112.845C50.3757 111.645 51.0485 110.683 51.5441 109.645C52.1988 108.274 52.617 106.84 52.6397 105.303C52.6488 104.583 52.3806 103.792 53.0353 103.185C52.7625 102.017 52.7579 100.794 52.276 99.6659C52.1215 99.3018 51.9714 98.9377 51.685 98.25C58.2362 101.307 64.1463 104.929 70.4611 107.99Z" fill="#15CDEB"/>
<path d="M67.3194 64.3959C65.6516 64.6282 64.7389 65.8518 63.5436 66.9013C62.8208 66.2091 62.6448 65.0926 61.505 64.8827C60.7082 65.9277 61.4402 67.138 60.9537 68.2679C60.5368 69.2414 59.9947 70.3669 60.3375 71.5771C59.5499 71.4744 59.4295 70.5678 58.5075 70.8179C58.438 71.586 59.309 72.3676 58.4982 73.3144C57.8496 74.0691 59.1747 75.0471 58.8874 75.9984C58.6048 76.9451 59.4156 77.624 59.4017 78.5216C59.3878 79.4282 58.9754 80.442 59.7445 81.2101C59.1052 82.4561 58.5214 83.7244 57.1501 84.6042C53.6336 84.4523 49.9041 85.0642 46.434 83.5324C46.3089 82.9027 46.4988 82.4963 46.8926 82.072C49.0238 79.7631 50.2145 76.9228 51.47 74.145C52.7904 71.2198 54.1571 68.3393 56.3161 65.8875C56.9647 65.1507 57.5995 64.4004 58.4241 63.793C59.8094 62.7659 60.7962 61.3502 61.8201 60.0417C62.376 60.0417 62.8254 60.0417 63.3768 60.0417C64.2895 61.7208 65.911 62.8731 67.3194 64.3959Z" fill="#015E85"/>
<path d="M166.658 55.9437C167.095 56.6694 167.529 57.395 167.949 58.098C167.949 60.012 167.949 61.8987 167.949 63.8354C169.927 65.4772 171.613 64.0349 173.689 63.2367C174.851 63.4363 176.194 62.8829 177.498 62.2842C178.399 62.9101 178.515 63.6993 178 64.5973C177.507 65.4545 177.061 66.3707 176.434 67.1099C175.962 67.6723 175.718 68.3572 175.246 68.9287C175.246 70.3346 175.246 71.7588 175.246 72.5752C174.997 74.7159 173.667 75.2737 172.608 76.4167C172.818 74.8293 172.428 73.5457 171.797 72.303C172.449 71.0558 172.552 69.5954 173.05 68.076C172.878 67.1916 172.175 66.6383 171.184 66.3707C169.326 66.9421 167.447 67.4955 165.723 68.4978C164.993 68.9196 164.534 68.5568 164.08 67.9263C164.856 66.348 164.676 64.8695 163.398 63.6358C162.651 62.9147 162.587 61.799 161.931 61.1096C161.931 59.9893 161.931 58.9371 161.931 57.8803C163.089 55.3722 163.814 55.0548 166.242 55.9437C166.37 55.9891 166.525 55.9482 166.667 55.9528L166.658 55.9437Z" fill="#015E85"/>
<path d="M51.8768 116.181C51.8768 115.853 51.8206 115.667 51.8854 115.565C52.3348 114.857 52.8144 114.17 53.2552 113.51C56.6472 113.381 59.9571 113.111 63.1589 112.806C63.6299 113.249 64.1571 113.47 63.8849 114.471C64.4077 114.011 64.6454 113.798 65.0213 113.466C67.8213 114.414 69.8435 116.274 70.9584 119.34C68.8065 119.871 66.7194 120.456 64.6022 120.886C62.4071 121.333 60.2725 120.217 57.9651 120.5C56.8848 119.92 55.7743 119.216 54.5817 118.715C53.2897 118.175 52.9268 116.753 51.8768 116.181Z" fill="#B4F4FE"/>
<path d="M61.9759 65.9942C62.8302 66.7868 63.3419 67.2632 63.8969 67.7753C64.4477 66.7645 65.2802 66.0744 66.2776 65.5C68.5629 68.5634 69.9115 72.2547 72.7778 75.0287C71.7804 76.4357 70.15 76.9032 68.6626 77.5489C67.9861 77.8427 67.0885 77.8605 66.5031 78.15C65.8093 78.4928 65.4971 77.678 65.0114 78.0253C63.1511 76.8632 61.4339 75.5808 61.0219 73.1675C60.9352 72.6688 60.9178 71.373 61.0306 71.0391C61.5119 69.5608 61.9282 68.0736 61.9759 65.9942Z" fill="#B4F4FE"/>
<path d="M74.6426 101.883C74.6338 101.558 74.6249 101.237 74.6117 100.911C74.5456 99.8657 74.7087 98.8662 75.0438 97.8666C75.7228 95.8355 75.4759 93.7218 75.4891 91.6311C75.7934 90.6453 77.557 90.9158 77.2175 89.256C76.878 88.8663 76.4371 88.3665 75.9962 87.8668C77.5614 86.6105 79.2457 85.5055 80.7624 83.6944C80.6433 85.4505 80.7447 86.8581 80.4846 88.3711C80.101 90.604 80.0437 92.9974 80.9167 95.3724C82.6539 95.9134 84.4572 96.5049 86.4236 96.3078C86.3046 97.2844 85.5242 97.3531 85.0392 97.5549C82.3276 98.669 79.7086 99.9849 77.094 101.31C76.3224 101.7 75.5156 101.929 74.6426 101.883Z" fill="#258EBD"/>
<path d="M166.569 80.9183C166.725 80.6393 166.886 80.3646 167.042 80.0856C167.957 80.0813 168.867 80.0727 169.782 80.0684L169.768 80.0556C169.708 81.1673 170.149 82.2275 170.379 83.2792C170.669 84.6098 170.793 85.9705 171.142 87.2926C171.469 88.5288 171.666 89.7993 171.937 91.1471C171.129 91.8983 170.333 92.9285 169.258 93.5423C168.251 94.1132 166.95 94.242 165.604 94.6111C164.569 94.4051 163.756 93.6024 162.975 92.7697C162.437 91.2373 163.678 90.0311 163.829 88.6318L163.793 88.6661C164.68 88.4987 164.979 87.666 165.061 87.1423C165.346 85.3266 166.399 83.7857 166.9 82.0644C167.033 81.6266 167.355 81.1244 166.569 80.9183Z" fill="#B4F4FE"/>
<path d="M151.075 84.9708C151.313 84.819 151.493 84.7051 151.681 84.5827C152.018 84.8316 151.825 85.1986 151.924 85.5488C150.429 86.7763 149.177 88.1769 148.594 90.0625C147.723 89.8178 147.055 89.4635 146.48 88.9235C142.863 85.5235 138.82 82.541 135.549 78.9849C135.988 78.563 136.473 78.099 137.276 77.327C138.627 77.3059 140.202 77.8121 141.728 78.9005C143.487 80.1576 145.197 81.4864 147.153 82.5368C148.495 83.2624 149.657 84.3296 151.075 84.9708Z" fill="#B4F4FE"/>
<path d="M64.7531 86.4591C64.9975 86.7158 65.2465 86.9768 65.5 87.242C64.9839 88.1597 65.0111 89.3427 63.8794 90.0625C62.2632 89.2837 60.3936 88.7954 59.2528 87.1873C59.2528 85.9034 59.2528 84.5774 59.2528 83.2387C59.5516 82.7167 59.8594 82.1821 60.1627 81.6517C60.122 80.5656 60.1763 79.4963 59.7463 78.4187C59.375 77.4926 59.9002 76.4402 59.3207 75.3962C58.9314 74.6974 59.2483 73.6618 59.3524 72.7778C60.7875 76.095 61.5797 77.3368 63.7843 78.4397C63.4765 81.1423 64.5041 83.7523 64.7531 86.4591Z" fill="#B4F4FE"/>
<path d="M171.078 67.3194C172.13 68.1045 172.06 68.8138 171.691 69.7683C171.291 70.8032 170.822 71.8827 171.134 73.154C169.096 74.2379 167.184 75.3709 165.168 76.2586C164.442 76.5798 163.473 76.3121 162.6 76.3121C162.404 75.9508 162.2 75.5806 161.931 75.081C162.608 73.4484 163.091 71.6284 163.356 69.6301C164.538 69.7416 165.52 69.3758 166.559 68.8361C167.945 68.1134 169.54 67.8146 171.078 67.3194Z" fill="#B4F4FE"/>
<path d="M73.6875 81.9796C76.2372 80.3914 79.1658 79.2894 81.8184 77.3264C81.8184 78.3213 81.7389 79.2046 81.8371 80.0702C82.0383 81.8413 81.4441 83.327 79.9237 84.2639C78.5576 85.1071 77.5518 86.3072 76.167 87.3333C74.581 85.8343 73.8559 84.0319 73.6875 81.9796Z" fill="#B4F4FE"/>
<path d="M171.486 73.7499C171.319 74.807 172.349 75.5161 171.746 76.8497C171.112 77.4964 170.341 78.5757 168.822 79.0975C167.576 79.2402 166.105 79.0351 164.643 78.6693C163.15 78.2947 161.74 79.3829 160.296 79.0975C158.644 76.7872 158.768 76.1227 161.313 73.6875C161.401 74.9006 161.472 76.0602 162.432 76.7783C164.096 77.2109 165.598 76.7515 166.919 75.8952C168.329 74.9854 169.971 74.6821 171.486 73.7499Z" fill="#015E86"/>
<path d="M183.764 126.425C183.764 126.884 183.331 126.985 183.13 127.361C176.209 127.361 169.293 127.361 162.376 127.361C162.236 127.109 162.097 126.857 161.931 126.563C162.123 126.517 162.328 126.412 162.516 126.43C165.815 126.756 169.052 125.756 172.343 125.976C172.81 126.008 173.16 125.632 173.509 125.595C175.829 125.352 178.127 125.517 180.268 126.412C180.976 126.646 181.282 125.829 181.868 125.861C182.283 125.536 181.719 124.925 182.256 124.632C182.72 125.219 183.458 125.618 183.764 126.425Z" fill="#015E86"/>
<path d="M136.472 109.167C137.427 109.495 138.387 109.827 139.347 110.16C139.575 109.989 139.811 109.813 139.97 109.695C147.04 112.911 153.655 117.038 161.461 119.27C161.634 119.441 162.13 119.926 162.648 120.43C163.058 119.754 162.703 119.015 162.949 118.09C164.536 116.861 166.11 115.197 168.299 114.556C167.916 115.701 166.775 115.848 166.038 116.534C165.178 117.326 164.027 117.728 163.34 118.775C164.027 119.505 163.94 120.17 163.153 120.851C162.739 121.125 162.225 120.919 161.734 120.914C161.343 120.714 161.443 119.025 160.538 120.469C160.378 120.479 160.215 120.484 160.055 120.493C159.937 120.41 159.823 120.327 159.705 120.249C159.823 120.063 159.946 119.882 160.06 119.701C153.277 117.517 147.094 113.787 140.557 110.699C139.902 110.699 139.147 110.699 138.273 110.699C137.732 110.4 137.095 110.048 136.458 109.7C136.463 109.519 136.467 109.343 136.472 109.167Z" fill="#030A0C"/>
<path d="M185.463 138.171C185.537 138.44 185.326 138.567 185.146 138.791C186.134 140.387 187.302 141.878 188.184 143.597C189.401 145.968 189.958 148.554 190.757 151.053C192.474 156.402 194.045 161.805 196.469 166.88C196.526 167.004 196.486 167.177 196.491 167.332C196.486 167.656 196.478 167.975 196.473 168.299C194.998 166.269 194.309 163.834 193.444 161.532C192.035 157.792 190.928 153.925 189.752 150.095C189.181 148.248 188.777 146.347 187.943 144.591C186.854 142.293 185.375 140.259 183.979 138.171C183.803 137.906 183.649 137.678 183.882 137.368C184.44 137.368 184.505 138.152 185.05 138.171C185.182 138.171 185.322 138.175 185.463 138.171Z" fill="#051012"/>
<path d="M83.2423 121.776C83.6718 120.931 84.4202 121.042 84.863 120.471C92.0588 120.471 99.3343 120.471 106.623 120.471C106.211 117.591 105.109 114.928 105.37 112.043C105.498 110.623 106.087 109.362 106.57 108.062C106.592 108 106.689 107.964 106.716 107.902C107.677 105.81 109.404 104.575 111.742 103.708C112.26 103.708 113.075 103.708 113.956 103.708C114.129 103.863 114.333 104.071 114.558 104.252C117.224 106.398 117.574 109.42 117.268 112.441C117.02 114.866 116.281 117.255 116.006 119.706C115.962 120.091 115.32 120.316 115.776 120.971C116.914 120.971 118.163 120.874 119.385 121.002C120.302 121.099 121.276 120.989 122.104 121.201C123.14 121.467 124.123 121.329 125.12 121.396C126.222 121.467 127.329 121.413 128.436 121.413C129.468 121.413 130.5 121.413 131.532 121.413C132.563 121.413 133.595 121.413 134.684 121.413C135.202 121.63 135.512 122.148 135.955 122.586C135.632 125.47 136.562 128.311 136.407 131.23C136.252 134.168 136.372 137.123 136.372 140.079C135.446 140.879 134.583 140.853 133.325 140.547C131.996 140.22 130.562 139.702 129.087 139.977C128.76 140.039 128.357 140.127 128.038 139.84C127.511 139.366 127.059 139.601 126.466 139.835C125.824 140.087 125.04 139.99 124.221 140.048C122.821 141.003 121.621 142.083 121.652 144.193C121.674 145.586 121.422 145.666 123.158 148.657C126.271 149.71 129.486 149.152 132.661 149.276C133.537 149.312 134.414 149.281 135.26 149.281C136.11 151.347 135.92 153.448 135.924 155.523C135.933 158.248 135.898 160.978 135.942 163.703C135.955 164.614 135.659 165.574 136.345 166.446C136.558 166.72 136.416 167.309 136.363 167.742C136.323 168.052 135.986 168.49 136.093 168.623C136.407 169.021 136.46 169.428 136.318 169.835C136.23 170.087 135.938 170.273 135.712 170.516C134.472 170.516 133.223 170.56 131.979 170.507C125.602 170.242 119.265 171.14 112.884 171.016C110.192 170.963 107.566 170.339 104.856 170.485C102.137 170.631 99.352 170.835 96.6818 170.445C91.9303 169.751 87.1878 170.308 82.4496 170.074C82.1706 170.06 81.8917 170.074 81.6658 170.074C81.2452 169.406 81.7145 168.667 81.1477 168.123C80.9529 167.932 80.9086 167.366 81.0415 167.092C81.812 165.49 81.4533 163.8 81.4444 162.159C81.4134 158.005 82.1086 153.886 81.9492 149.719C81.7898 145.525 81.6835 141.304 82.0068 137.128C82.1839 134.818 81.9891 132.451 82.4629 130.226C82.7994 128.633 82.5338 127.001 83.167 125.408C83.5921 124.32 83.2423 122.931 83.2423 121.776Z" fill="#015E85"/>
<path d="M120.894 48.4233C121.212 49.3665 120.689 49.5625 120.375 50.0129C117.965 50.0129 115.507 49.9652 113.048 50.034C112.103 50.0605 111.335 49.2976 110.346 49.4353C109.461 49.5572 108.467 49.8168 107.652 48.9585C107.569 48.8737 107.369 48.9373 107.225 48.9585C104.488 49.3559 101.825 48.1955 99.0918 48.4128C97.6796 48.524 96.2674 48.4551 94.6111 47.4643C96.4548 47.4749 97.9629 46.9398 99.4536 47.7769C99.6977 47.9147 100.011 47.9041 100.29 47.8829C106.497 47.4961 112.669 48.7148 118.876 48.4233C119.578 48.3969 120.284 48.4233 120.894 48.4233Z" fill="#020404"/>
</svg>
